# Blender 5.2.1 LTS
# www.blender.org
mtllib Bat.mtl
o Bat
v -122.474495 195.987579 122.474289
v -99.999992 295.987579 99.999687
v -122.474495 318.461975 -0.000312
v -173.205078 195.987488 -0.000193
v -0.000000 195.987305 -173.205231
v -0.000000 318.461884 -122.474792
v 100.000000 295.987396 -100.000275
v 122.474495 195.987366 -122.474655
v -0.000000 195.987625 157.180771
v -0.000000 318.462067 122.474174
v 173.205093 195.987488 -0.000193
v 122.474495 318.461975 -0.000312
v 100.000000 295.987579 99.999687
v 122.474495 195.987579 122.474289
v -0.000000 22.782417 -0.000027
v 122.474495 73.513023 -0.000074
v 100.000000 95.987587 99.999886
v -0.000000 73.513145 122.474403
v -0.000000 369.192566 -0.000359
v -173.205078 195.987488 -0.000193
v -122.474495 318.461975 -0.000312
v -99.999992 295.987396 -100.000275
v -122.474495 195.987366 -122.474655
v -0.000000 369.192566 -0.000359
v 122.474495 318.461975 -0.000312
v -99.999992 95.987411 -100.000092
v -0.000000 73.512909 -122.474541
v -0.000000 22.782417 -0.000027
v -122.474495 73.513023 -0.000074
v -99.999992 95.987587 99.999886
v -122.474495 73.513023 -0.000074
v 100.000000 95.987411 -100.000092
v 122.474495 73.513023 -0.000074
v 173.205093 195.987488 -0.000193
v 51.198818 239.271362 147.044525
v 65.997856 235.206329 143.562454
v 83.721733 246.974182 138.377396
v 62.882877 252.698227 143.280609
v 36.525654 235.206375 151.023865
v 42.221298 246.974182 148.883972
v 25.910044 224.100494 154.434174
v 37.339378 182.653030 154.238083
v 26.379841 193.758835 156.289871
v 43.367123 172.972702 153.409958
v 52.138412 178.587982 150.755981
v 64.205956 167.248657 148.506790
v 66.811569 182.653030 146.776688
v 84.867531 172.972702 142.903397
v 77.427185 193.758835 143.366379
v 99.815605 188.611053 138.101273
v 81.140808 208.929642 141.438873
v 105.044838 209.973419 135.387161
v 76.957397 224.100494 141.510651
v 99.154091 231.335815 135.488205
v 51.668621 208.929688 148.900269
v 51.198818 239.271362 147.044525
v 36.525654 235.206375 151.023865
v -36.525654 235.206375 151.023849
v -42.221294 246.974182 148.883957
v -62.882885 252.698227 143.280594
v -51.198818 239.271362 147.044510
v -25.910046 224.100494 154.434158
v -37.339375 182.653030 154.238068
v -43.367115 172.972702 153.409943
v -26.379841 193.758835 156.289856
v -52.138412 178.587982 150.755966
v -64.205956 167.248657 148.506775
v -66.811569 182.653030 146.776672
v -84.867531 172.972702 142.903381
v -77.427185 193.758835 143.366364
v -99.815613 188.611053 138.101257
v -81.140808 208.929642 141.438858
v -105.044838 209.973419 135.387146
v -76.957390 224.100494 141.510635
v -99.154091 231.335815 135.488190
v -65.997856 235.206329 143.562439
v -83.721725 246.974182 138.377380
v -51.668613 208.929688 148.900253
v -36.525654 235.206375 151.023849
v -51.198818 239.271362 147.044510
v -51.668613 208.929688 148.900253
v -25.910046 224.100494 154.434158
v -51.668613 208.929688 148.900253
v -22.196417 208.929642 156.361664
v -51.668613 208.929688 148.900253
v -26.379841 193.758835 156.289856
v -51.668613 208.929688 148.900253
v -37.339375 182.653030 154.238068
v -51.668613 208.929688 148.900253
v -52.138412 178.587982 150.755966
v -51.668613 208.929688 148.900253
v -66.811569 182.653030 146.776672
v -51.668613 208.929688 148.900253
v -77.427185 193.758835 143.366364
v -51.668613 208.929688 148.900253
v -81.140808 208.929642 141.438858
v -51.668613 208.929688 148.900253
v -76.957390 224.100494 141.510635
v -51.668613 208.929688 148.900253
v -65.997856 235.206329 143.562439
v -51.668613 208.929688 148.900253
v 51.668621 208.929688 148.900269
v 25.910044 224.100494 154.434174
v 51.668621 208.929688 148.900269
v 22.196417 208.929642 156.361679
v 51.668621 208.929688 148.900269
v 26.379841 193.758835 156.289871
v 51.668621 208.929688 148.900269
v 37.339378 182.653030 154.238083
v 51.668621 208.929688 148.900269
v 52.138412 178.587982 150.755981
v 51.668621 208.929688 148.900269
v 66.811569 182.653030 146.776688
v 51.668621 208.929688 148.900269
v 77.427185 193.758835 143.366379
v 51.668621 208.929688 148.900269
v 81.140808 208.929642 141.438873
v 51.668621 208.929688 148.900269
v 76.957397 224.100494 141.510651
v 51.668621 208.929688 148.900269
v 65.997856 235.206329 143.562454
v 51.668621 208.929688 148.900269
v 7.386625 171.995331 181.711136
v 20.321131 171.995331 181.711136
v 15.118390 189.517548 181.762192
v 7.386619 200.946548 181.795486
v -20.321131 171.995331 181.711136
v -7.386625 171.995331 181.711136
v -7.386625 200.946503 181.795486
v -15.118390 189.517548 181.762192
v 0.000000 166.312378 166.828857
v 28.306330 166.312378 166.828857
v 30.219732 164.608734 181.689636
v 0.000000 164.608734 181.689636
v -28.306330 166.312378 166.828857
v -30.219732 164.608734 181.689636
v 20.490032 192.636734 166.905548
v 21.875082 192.712540 181.771500
v -20.490032 192.636734 166.905548
v -21.875082 192.712540 181.771500
v 0.000000 222.924774 166.993790
v 0.000000 225.047928 181.865707
v 20.321131 171.995331 181.711136
v 7.386625 171.995331 181.711136
v 15.118390 189.517548 181.762192
v 7.386619 200.946548 181.795486
v -7.386625 171.995331 181.711136
v -20.321131 171.995331 181.711136
v -7.386625 200.946503 181.795486
v -15.118390 189.517548 181.762192
v 0.000000 226.018036 143.630859
v -21.875082 193.682663 143.536652
v 21.875082 193.682663 143.536652
v -30.219732 165.578857 143.454788
v 30.219732 165.578857 143.454788
v 0.000000 165.578857 143.454788
v 170.132721 301.591156 -21.378469
v 253.642258 242.185104 -45.373596
v 172.591309 231.147583 12.303817
v 176.139893 308.486938 -25.525623
v 325.445251 356.939392 -44.215122
v 260.152161 248.723267 -49.665188
v 170.487610 301.867249 -20.826910
v 172.946213 231.423691 12.855377
v 253.997147 242.461227 -44.822037
v 176.261795 308.378510 -24.832949
v 260.274048 248.614822 -48.972511
v 325.567139 356.830963 -43.522446
v 253.997147 242.461227 -44.822037
v 172.946213 231.423691 12.855377
v 325.567139 356.830963 -43.522446
v 260.274048 248.614822 -48.972511
v 259.864746 248.593170 -49.902008
v 261.591553 241.917816 -49.206181
v 253.974075 241.889664 -45.825420
v 162.942429 312.707611 -16.913548
v 169.009369 319.569580 -21.103615
v 175.933029 308.451996 -25.799723
v 169.873337 301.605194 -21.603518
v 172.302109 231.197678 12.098417
v 165.372086 242.231537 16.802725
v 326.047058 370.582977 -40.768570
v 325.432983 357.089264 -44.512878
v 151.798019 224.773163 26.181366
v 144.882095 235.823242 30.868246
v 337.894958 374.408295 -42.257286
v 260.401733 248.858459 -48.689816
v 254.511078 242.154968 -44.613224
v 262.128540 242.183105 -47.993992
v 163.846100 312.850983 -15.918075
v 170.746994 301.853210 -20.601854
v 176.468704 308.413452 -24.558867
v 169.560501 319.396027 -19.881191
v 166.333588 242.439911 17.730242
v 173.235428 231.373627 13.060778
v 326.324890 370.217438 -39.496826
v 325.710754 356.723755 -43.241135
v 145.647018 235.829086 31.983162
v 152.562927 224.779022 27.296274
v 338.172791 374.042786 -40.985538
v -169.902069 301.745453 -20.956165
v -172.391632 231.239746 12.593539
v -253.765472 242.677597 -44.548756
v -175.911407 308.670593 -25.050964
v -260.279602 249.247131 -48.785557
v -325.163330 357.675293 -42.697857
v -170.252533 302.021576 -20.401804
v -254.115921 242.953781 -43.994392
v -172.742111 231.515869 13.147902
v -176.029327 308.561096 -24.357750
v -325.281189 357.565796 -42.004658
v -260.397522 249.137665 -48.092358
v -172.391632 231.239746 12.593539
v -253.765472 242.677597 -44.548756
v -260.279602 249.247131 -48.785557
v -325.163330 357.675293 -42.697857
v -259.994141 249.116592 -49.024460
v -254.101135 242.384277 -44.999107
v -261.739563 242.445770 -48.331722
v -162.645493 312.827637 -16.513403
v -169.644058 301.759064 -21.182823
v -175.706375 308.635529 -25.326422
v -168.714996 319.719299 -20.650795
v -165.106049 242.289276 17.070038
v -172.103561 231.289246 12.386428
v -325.696411 371.313568 -39.219063
v -325.152405 357.825745 -42.995377
v -144.550171 235.780869 30.992725
v -151.533539 224.764557 26.326427
v -337.540161 375.182709 -40.625080
v -260.522644 249.381134 -47.808357
v -262.268005 242.710297 -47.115616
v -254.629562 242.648865 -43.782993
v -163.542404 312.972015 -15.511971
v -169.259033 319.545044 -19.425303
v -176.234375 308.596191 -24.082308
v -170.510544 302.007965 -20.175156
v -173.030182 231.466370 13.355015
v -166.060959 242.498993 18.004028
v -325.967468 370.946259 -37.946358
v -325.423462 357.458496 -41.722660
v -152.291412 224.770676 27.446136
v -145.308044 235.787003 32.112450
v -337.811218 374.815430 -39.352364
v 86.761871 -4.751871 -55.989201
v 86.550095 -4.751908 -96.475090
v 95.718246 154.139511 -105.739792
v 96.026436 154.139572 -46.821228
v 46.275982 -4.751871 -55.777431
v 46.064209 -4.751908 -96.263321
v 37.107853 154.139572 -46.513039
v 36.799664 154.139526 -105.431602
v 86.550095 -4.751908 -96.475090
v 46.064209 -4.751908 -96.263321
v 36.799664 154.139526 -105.431602
v 95.718246 154.139511 -105.739792
v -86.783775 -4.751871 -56.011345
v -96.058289 154.139572 -46.853451
v -95.686050 154.139511 -105.771645
v -86.527992 -4.751908 -96.496979
v -46.042347 -4.751908 -96.241196
v -46.298134 -4.751871 -55.755558
v -36.767838 154.139526 -105.399406
v -37.140079 154.139572 -46.481209
v -86.527992 -4.751908 -96.496979
v -95.686050 154.139511 -105.771645
v -36.767838 154.139526 -105.399406
v -46.042347 -4.751908 -96.241196
v 85.792267 395.095734 75.371162
v 95.422081 487.150116 80.729904
v 51.662529 406.692139 82.583015
v 119.168800 383.669434 81.533257
v 67.247017 303.786865 88.777084
v 48.400940 310.776245 88.861168
v 89.600845 295.496613 88.677353
v 89.600845 295.496613 88.677353
v 99.396957 291.863556 88.633652
v 132.167191 379.185303 89.195107
v 119.168800 383.669434 81.533257
v 51.662529 406.692139 82.583015
v 41.078621 410.257385 89.582230
v 38.608398 314.407959 88.904861
v 48.400940 310.776245 88.861168
v 97.272179 503.725189 90.144676
v 95.422081 487.150116 80.729904
v 85.722626 394.967224 70.373306
v 49.919788 407.149353 77.918922
v 95.668991 488.605408 75.952759
v 120.956406 383.660095 76.863739
v 67.042801 303.237183 83.811600
v 47.238876 310.486816 84.006706
v 90.449158 294.837585 83.794113
v 90.449158 294.837585 83.794113
v 120.956406 383.660095 76.863739
v 134.438766 379.145782 84.741066
v 100.754585 291.202515 83.867111
v 49.919788 407.149353 77.918922
v 47.238876 310.486816 84.006706
v 36.947514 314.319885 84.189606
v 38.668381 411.105591 85.284424
v 95.668991 488.605408 75.952759
v 97.451492 505.404297 85.438461
v 132.167191 379.185303 89.195107
v 99.396957 291.863556 88.633652
v 48.400940 310.776245 88.861168
v 38.608398 314.407959 88.904861
v 41.078621 410.257385 89.582230
v 97.272179 503.725189 90.144676
v 89.600845 295.496613 88.677353
v 67.247017 303.786865 88.777084
v 67.042801 303.237183 83.811600
v 90.449158 294.837585 83.794113
v 48.400940 310.776245 88.861168
v 47.238876 310.486816 84.006706
v 89.600845 295.496613 88.677353
v -85.922508 395.023254 74.994606
v -51.819790 406.686249 82.226784
v -95.682961 487.080139 80.066322
v -119.293709 383.570740 81.136986
v -67.277733 303.779083 88.699501
v -48.441090 310.793701 88.793106
v -89.620354 295.458832 88.588478
v -89.620354 295.458832 88.588478
v -119.293709 383.570740 81.136986
v -132.298401 379.091949 88.791229
v -99.411560 291.812592 88.539825
v -51.819790 406.686249 82.226784
v -48.441090 310.793701 88.793106
v -38.653454 314.438599 88.841751
v -41.251854 410.286224 89.232368
v -95.682961 487.080139 80.066322
v -97.570129 503.680420 89.429169
v -85.844688 394.880096 69.997261
v -95.924141 488.521027 75.284508
v -50.070179 407.132111 77.564156
v -121.073799 383.545258 76.464661
v -67.064827 303.214996 83.736000
v -47.270866 310.491547 83.941383
v -90.459953 294.784271 83.705849
v -90.459953 294.784271 83.705849
v -100.760651 291.135712 83.773087
v -134.562775 379.036285 84.333694
v -121.073799 383.545258 76.464661
v -50.070179 407.132111 77.564156
v -38.835854 411.124969 84.935944
v -36.984894 314.338806 84.129433
v -47.270866 310.491547 83.941383
v -97.744118 505.345398 84.717743
v -95.924141 488.521027 75.284508
v -134.562775 379.036285 84.333694
v -100.760651 291.135712 83.773087
v -47.270866 310.491547 83.941383
v -36.984894 314.338806 84.129433
v -38.835854 411.124969 84.935944
v -97.744118 505.345398 84.717743
v -90.459953 294.784271 83.705849
v -67.064827 303.214996 83.736000
v -47.270866 310.491547 83.941383
v -90.459953 294.784271 83.705849
vn -0.6816 -0.0000 0.7317
vn -0.5645 0.5645 0.6023
vn -0.7071 0.7071 -0.0000
vn -1.0000 -0.0000 -0.0000
vn -0.0000 -0.0000 -1.0000
vn -0.0000 0.7071 -0.7071
vn 0.5774 0.5773 -0.5773
vn 0.7071 -0.0000 -0.7071
vn -0.0000 -0.0000 1.0000
vn -0.0000 0.6816 0.7317
vn 1.0000 -0.0000 -0.0000
vn 0.7071 0.7071 -0.0000
vn 0.5645 0.5645 0.6023
vn 0.6816 -0.0000 0.7317
vn -0.0000 -1.0000 -0.0000
vn 0.7071 -0.7071 -0.0000
vn 0.5645 -0.5645 0.6023
vn -0.0000 -0.6816 0.7317
vn -0.0000 1.0000 -0.0000
vn -0.5773 0.5774 -0.5774
vn -0.7071 -0.0000 -0.7071
vn -0.5774 -0.5773 -0.5773
vn -0.0000 -0.7071 -0.7071
vn -0.7071 -0.7071 -0.0000
vn -0.5645 -0.5645 0.6023
vn 0.5773 -0.5774 -0.5774
vn 0.2455 0.0596 0.9676
vn 0.2441 0.0610 0.9678
vn 0.2432 0.0602 0.9681
vn 0.2446 0.0585 0.9679
vn 0.2503 0.0569 0.9665
vn 0.2474 0.0562 0.9673
vn 0.2455 0.0624 0.9674
vn 0.2531 0.0722 0.9647
vn 0.2455 0.0636 0.9673
vn 0.2477 0.0716 0.9662
vn 0.2456 0.0671 0.9671
vn 0.2443 0.0681 0.9673
vn 0.2440 0.0652 0.9676
vn 0.2429 0.0659 0.9678
vn 0.2434 0.0640 0.9678
vn 0.2424 0.0643 0.9680
vn 0.2434 0.0630 0.9679
vn 0.2424 0.0629 0.9681
vn 0.2435 0.0620 0.9679
vn 0.2426 0.0617 0.9682
vn 0.2449 0.0630 0.9675
vn 0.2502 0.0570 0.9665
vn -0.2503 0.0569 0.9665
vn -0.2474 0.0562 0.9673
vn -0.2446 0.0585 0.9679
vn -0.2455 0.0596 0.9676
vn -0.2455 0.0624 0.9674
vn -0.2531 0.0722 0.9647
vn -0.2477 0.0716 0.9662
vn -0.2455 0.0636 0.9673
vn -0.2456 0.0671 0.9671
vn -0.2443 0.0681 0.9673
vn -0.2440 0.0651 0.9676
vn -0.2429 0.0659 0.9678
vn -0.2434 0.0640 0.9678
vn -0.2424 0.0643 0.9680
vn -0.2434 0.0630 0.9679
vn -0.2424 0.0629 0.9681
vn -0.2436 0.0621 0.9679
vn -0.2426 0.0617 0.9682
vn -0.2442 0.0611 0.9678
vn -0.2432 0.0602 0.9681
vn -0.2449 0.0630 0.9675
vn -0.2502 0.0570 0.9665
vn -0.2455 0.0597 0.9676
vn -0.2455 0.0635 0.9673
vn -0.2440 0.0652 0.9676
vn -0.2435 0.0639 0.9678
vn -0.2435 0.0630 0.9679
vn -0.2441 0.0610 0.9678
vn 0.2456 0.0623 0.9674
vn 0.2455 0.0635 0.9673
vn 0.2456 0.0636 0.9673
vn 0.2440 0.0651 0.9676
vn 0.2435 0.0639 0.9678
vn 0.2436 0.0639 0.9678
vn 0.2435 0.0630 0.9679
vn 0.2436 0.0621 0.9679
vn 0.2455 0.0597 0.9676
vn -0.0000 -0.0029 1.0000
vn -0.0000 -0.9991 -0.0414
vn 0.7994 -0.5990 -0.0460
vn 0.6903 -0.5226 0.5003
vn -0.0000 -0.7473 0.6645
vn -0.7994 -0.5990 -0.0460
vn -0.6903 -0.5226 0.5003
vn 0.9036 0.4284 -0.0068
vn 0.6943 0.3238 0.6427
vn -0.9036 0.4284 -0.0068
vn -0.6943 0.3238 0.6427
vn -0.0000 1.0000 -0.0057
vn -0.0000 0.8605 0.5094
vn -0.0000 0.9913 0.1313
vn -0.9012 0.4273 0.0725
vn 0.9012 0.4273 0.0725
vn -0.8045 -0.5879 0.0843
vn 0.8046 -0.5879 0.0843
vn -0.0000 -0.9995 0.0314
vn -0.4987 -0.3880 -0.7751
vn 0.0553 -0.9921 -0.1122
vn -0.0670 -0.9584 -0.2775
vn -0.1713 0.1524 -0.9734
vn 0.6886 -0.3845 -0.6148
vn 0.4915 -0.2546 -0.8328
vn 0.4987 0.3880 0.7751
vn 0.5518 -0.4770 0.6841
vn 0.4985 -0.6473 0.5766
vn 0.1713 -0.1524 0.9734
vn 0.7271 -0.4642 0.5058
vn 0.8331 -0.5131 0.2065
vn 0.4985 -0.6474 0.5766
vn 0.5518 -0.4769 0.6841
vn 0.8331 -0.5131 0.2064
vn 0.7271 -0.4641 0.5059
vn 0.3348 0.3021 -0.8926
vn 0.3964 -0.6248 -0.6727
vn -0.4032 -0.8527 -0.3323
vn -0.9418 0.3083 -0.1343
vn -0.5956 0.6883 -0.4141
vn -0.1719 0.0191 -0.9849
vn -0.5119 -0.4404 -0.7375
vn 0.0821 -0.6631 -0.7440
vn -0.9013 0.3193 -0.2926
vn -0.3258 0.8329 -0.4474
vn 0.3066 -0.4293 -0.8495
vn -0.3023 -0.6187 -0.7251
vn -0.5168 0.7539 -0.4057
vn 0.5660 0.6413 -0.5180
vn 0.8085 0.5294 0.2571
vn 0.1154 -0.5691 0.8141
vn 0.8477 -0.4018 0.3462
vn -0.1349 0.4799 0.8669
vn 0.7232 -0.1973 0.6619
vn 0.6640 -0.0932 0.7419
vn -0.0880 0.5846 0.8065
vn 0.3326 0.4904 0.8055
vn 0.8763 -0.4567 0.1535
vn -0.0382 0.4614 0.8864
vn 0.5511 -0.7500 0.3658
vn 0.1542 0.7937 0.5884
vn 0.5764 -0.5889 0.5664
vn 0.7897 0.3470 0.5059
vn 0.4925 -0.3881 -0.7790
vn 0.0619 -0.9580 -0.2799
vn -0.0594 -0.9917 -0.1139
vn 0.1657 0.1538 -0.9741
vn -0.4977 -0.2512 -0.8302
vn -0.6938 -0.3808 -0.6113
vn -0.4925 0.3881 0.7790
vn -0.4971 -0.6469 0.5784
vn -0.5491 -0.4765 0.6866
vn -0.1657 -0.1538 0.9741
vn -0.8336 -0.5106 0.2107
vn -0.7255 -0.4627 0.5094
vn 0.0619 -0.9580 -0.2800
vn -0.0594 -0.9917 -0.1138
vn -0.4976 -0.2511 -0.8303
vn -0.6938 -0.3809 -0.6112
vn -0.3393 0.3051 -0.8898
vn 0.3981 -0.8533 -0.3366
vn -0.4027 -0.6220 -0.6715
vn 0.9420 0.3052 -0.1395
vn 0.5058 -0.4406 -0.7417
vn 0.1658 0.0206 -0.9859
vn 0.5954 0.6871 -0.4164
vn 0.9006 0.3168 -0.2976
vn -0.0891 -0.6612 -0.7449
vn 0.3258 0.8327 -0.4477
vn -0.3135 -0.4265 -0.8484
vn 0.5168 0.7530 -0.4073
vn 0.2956 -0.6182 -0.7283
vn -0.5671 0.6444 -0.5130
vn -0.8050 0.5316 0.2633
vn -0.8469 -0.3996 0.3507
vn -0.1123 -0.5704 0.8137
vn 0.1420 0.4776 0.8670
vn 0.0951 0.5826 0.8072
vn -0.6596 -0.0925 0.7459
vn -0.7197 -0.1962 0.6660
vn -0.8769 -0.4540 0.1581
vn -0.3258 0.4899 0.8086
vn 0.0454 0.4594 0.8871
vn -0.5514 -0.7488 0.3677
vn -0.5749 -0.5882 0.5688
vn -0.1478 0.7930 0.5910
vn -0.7853 0.3487 0.5116
vn 0.5645 -0.6077 0.5586
vn 0.5586 -0.6077 -0.5645
vn 0.7010 -0.0817 -0.7084
vn 0.7084 -0.0818 0.7010
vn -0.5586 -0.6077 0.5645
vn -0.5645 -0.6077 -0.5586
vn -0.7010 -0.0818 0.7084
vn -0.7084 -0.0818 -0.7011
vn -0.5646 -0.6076 -0.5586
vn -0.7084 -0.0817 -0.7010
vn 0.7011 -0.0818 -0.7084
vn -0.5651 -0.6077 0.5580
vn -0.7092 -0.0818 0.7002
vn -0.7003 -0.0818 -0.7092
vn -0.5580 -0.6077 -0.5651
vn 0.5651 -0.6077 -0.5580
vn 0.5580 -0.6077 0.5651
vn 0.7092 -0.0817 -0.7003
vn 0.7002 -0.0818 0.7092
vn -0.5581 -0.6076 -0.5651
vn -0.7003 -0.0817 -0.7092
vn 0.7092 -0.0818 -0.7003
vn 0.0139 0.0257 0.9996
vn -0.0494 -0.2910 0.9554
vn 0.3485 -0.0914 0.9328
vn -0.3575 0.0019 0.9339
vn -0.2142 -0.5870 0.7808
vn -0.0791 -0.6199 0.7807
vn -0.3598 -0.5697 0.7389
vn 0.1078 -0.6873 0.7184
vn 0.4980 -0.0270 0.8667
vn -0.3576 0.0019 0.9339
vn 0.3486 -0.0915 0.9328
vn -0.4217 0.1037 0.9008
vn -0.4192 -0.4789 0.7713
vn 0.0791 0.4563 0.8863
vn -0.0494 -0.2911 0.9554
vn -0.0137 -0.0252 -0.9996
vn -0.3452 0.0923 -0.9340
vn 0.0544 0.2904 -0.9554
vn 0.3572 0.0007 -0.9340
vn -0.2693 -0.7365 -0.6205
vn -0.4075 -0.6974 -0.5896
vn -0.1205 -0.7582 -0.6407
vn -0.1206 -0.7582 -0.6408
vn 0.3573 0.0007 -0.9340
vn 0.9448 -0.0286 -0.3264
vn 0.5348 -0.7658 -0.3571
vn -0.3453 0.0923 -0.9339
vn -0.4075 -0.6974 -0.5895
vn -0.8481 -0.4082 -0.3379
vn -0.9122 0.2918 -0.2878
vn 0.0545 0.2904 -0.9553
vn 0.1355 0.9839 -0.1166
vn 0.4981 -0.0270 0.8667
vn 0.1077 -0.6872 0.7184
vn -0.0791 -0.6198 0.7807
vn -0.4191 -0.4789 0.7714
vn 0.0790 0.4562 0.8864
vn -0.3598 -0.5696 0.7390
vn -0.2143 -0.5868 0.7808
vn -0.2693 -0.7364 -0.6206
vn -0.1205 -0.7582 -0.6408
vn -0.0156 0.0286 0.9995
vn -0.3499 -0.0891 0.9325
vn 0.0482 -0.2881 0.9564
vn 0.3560 0.0051 0.9345
vn 0.2138 -0.5843 0.7829
vn 0.0787 -0.6174 0.7827
vn 0.3593 -0.5670 0.7412
vn 0.3561 0.0051 0.9345
vn -0.4994 -0.0251 0.8660
vn -0.1081 -0.6853 0.7202
vn -0.3500 -0.0892 0.9325
vn 0.0787 -0.6175 0.7827
vn 0.4186 -0.4760 0.7734
vn 0.4201 0.1069 0.9012
vn 0.0483 -0.2882 0.9563
vn -0.0811 0.4588 0.8848
vn 0.0154 -0.0281 -0.9995
vn -0.0533 0.2875 -0.9563
vn 0.3466 0.0900 -0.9337
vn -0.3557 -0.0025 -0.9346
vn 0.2713 -0.7380 -0.6179
vn 0.4093 -0.6986 -0.5868
vn 0.1226 -0.7600 -0.6383
vn -0.5332 -0.7675 -0.3557
vn -0.9442 -0.0308 -0.3278
vn -0.3558 -0.0025 -0.9346
vn 0.3467 0.0900 -0.9337
vn 0.9122 0.2922 -0.2872
vn 0.8492 -0.4080 -0.3353
vn 0.4094 -0.6986 -0.5868
vn -0.1366 0.9834 -0.1197
vn -0.9442 -0.0308 -0.3279
vn 0.4093 -0.6986 -0.5869
vn 0.9122 0.2921 -0.2873
vn -0.1365 0.9834 -0.1197
vn 0.1226 -0.7599 -0.6384
vn 0.2713 -0.7379 -0.6180
vn 0.1225 -0.7599 -0.6383
vt 0.826069 0.870458
vt 0.829370 0.933371
vt 0.826069 0.947510
vt 0.818617 0.870458
vt 0.844060 0.870458
vt 0.844060 0.947510
vt 0.858750 0.933371
vt 0.862051 0.870458
vt 0.869504 0.870458
vt 0.862051 0.947510
vt 0.844060 0.761489
vt 0.862051 0.793405
vt 0.858750 0.807545
vt 0.844060 0.793405
vt 0.844060 0.979426
vt 0.829370 0.807545
vt 0.826069 0.793405
vt 0.790319 0.237896
vt 0.788248 0.237896
vt 0.786303 0.235768
vt 0.789220 0.235768
vt 0.792113 0.238931
vt 0.791746 0.237227
vt 0.793149 0.240725
vt 0.790319 0.245626
vt 0.792113 0.244590
vt 0.789220 0.246654
vt 0.788248 0.245626
vt 0.786303 0.246654
vt 0.786454 0.244590
vt 0.783777 0.245195
vt 0.785418 0.242796
vt 0.782319 0.242669
vt 0.785418 0.240725
vt 0.782319 0.239753
vt 0.786454 0.238931
vt 0.783777 0.237227
vt 0.672487 0.274185
vt 0.666363 0.264906
vt 0.675175 0.269994
vt 0.676469 0.281081
vt 0.680262 0.278805
vt 0.676469 0.287964
vt 0.680262 0.288980
vt 0.673027 0.293924
vt 0.675175 0.297792
vt 0.666131 0.297905
vt 0.666363 0.302879
vt 0.657521 0.297905
vt 0.656188 0.302879
vt 0.650064 0.293600
vt 0.647377 0.297792
vt 0.646083 0.286704
vt 0.642289 0.288980
vt 0.646083 0.279822
vt 0.642289 0.278805
vt 0.649524 0.273861
vt 0.647377 0.269994
vt 0.656420 0.269880
vt 0.656188 0.264906
vt 0.665031 0.269880
vt 0.728462 0.264158
vt 0.741367 0.264158
vt 0.736176 0.281641
vt 0.728462 0.293044
vt 0.700817 0.264158
vt 0.713722 0.264158
vt 0.713722 0.293044
vt 0.706008 0.281641
vt 0.719717 0.638120
vt 0.746513 0.638120
vt 0.692922 0.638120
vt 0.739114 0.663040
vt 0.700321 0.663040
vt 0.719717 0.691711
vt 0.719717 0.691711
vt 0.737736 0.644670
vt 0.726267 0.644670
vt 0.733122 0.660207
vt 0.726267 0.670341
vt 0.713168 0.644670
vt 0.701699 0.644670
vt 0.713168 0.670341
vt 0.706312 0.660207
vt 0.560784 0.359588
vt 0.514604 0.364670
vt 0.544933 0.330451
vt 0.560410 0.364055
vt 0.529850 0.421340
vt 0.513951 0.369168
vt 0.000000 0.000000
vt 0.996271 0.312022
vt 0.996271 0.477210
vt 0.952575 0.312022
vt 0.952575 0.477210
vt 0.952933 0.312578
vt 0.952933 0.477766
vt 0.996629 0.312578
vt 0.996629 0.477766
vt 0.718062 0.566714
vt 0.712957 0.616850
vt 0.742141 0.576121
vt 0.694693 0.557328
vt 0.726542 0.529199
vt 0.741376 0.534513
vt 0.709871 0.522981
vt 0.462118 0.595156
vt 0.460495 0.589890
vt 0.441509 0.631940
vt 0.446031 0.632264
vt 0.489910 0.649472
vt 0.493460 0.651352
vt 0.493334 0.601990
vt 0.489928 0.605293
vt 0.461886 0.699845
vt 0.462856 0.690859
vt 0.467961 0.641999
vt 0.492040 0.651407
vt 0.462856 0.692135
vt 0.444592 0.632613
vt 0.476441 0.604484
vt 0.491275 0.609798
vt 0.459770 0.598266
s 1
usemtl material
f 1/1/1 2/2/2 3/3/3
f 1/1/1 3/3/3 4/4/4
f 5/5/5 6/6/6 7/7/7
f 5/5/5 7/7/7 8/8/8
f 9/5/9 10/6/10 2/2/2
f 9/5/9 2/2/2 1/1/1
f 11/9/11 12/10/12 13/7/13
f 11/9/11 13/7/13 14/8/14
f 15/11/15 16/12/16 17/13/17
f 15/11/15 17/13/17 18/14/18
f 19/15/19 3/3/3 2/2/2
f 19/15/19 2/2/2 10/6/10
f 20/4/4 21/3/3 22/2/20
f 20/4/4 22/2/20 23/1/21
f 7/7/7 6/6/6 24/15/19
f 7/7/7 24/15/19 25/10/12
f 12/10/12 19/15/19 10/6/10
f 12/10/12 10/6/10 13/7/13
f 6/6/6 22/2/20 21/3/3
f 6/6/6 21/3/3 24/15/19
f 26/16/22 27/14/23 28/11/15
f 26/16/22 28/11/15 29/17/24
f 18/14/18 9/5/9 1/1/1
f 18/14/18 1/1/1 30/16/25
f 17/13/17 14/8/14 9/5/9
f 17/13/17 9/5/9 18/14/18
f 14/8/14 13/7/13 10/6/10
f 14/8/14 10/6/10 9/5/9
f 31/17/24 15/11/15 18/14/18
f 31/17/24 18/14/18 30/16/25
f 27/14/23 32/13/26 33/12/16
f 27/14/23 33/12/16 28/11/15
f 32/13/26 8/8/8 34/9/11
f 32/13/26 34/9/11 33/12/16
f 27/14/23 5/5/5 8/8/8
f 27/14/23 8/8/8 32/13/26
f 26/16/22 23/1/21 5/5/5
f 26/16/22 5/5/5 27/14/23
f 23/1/21 22/2/20 6/6/6
f 23/1/21 6/6/6 5/5/5
f 8/8/8 7/7/7 25/10/12
f 8/8/8 25/10/12 34/9/11
f 16/12/16 11/9/11 14/8/14
f 16/12/16 14/8/14 17/13/17
f 30/16/25 1/1/1 4/4/4
f 30/16/25 4/4/4 31/17/24
f 29/17/24 20/4/4 23/1/21
f 29/17/24 23/1/21 26/16/22
f 35/18/27 36/19/28 37/20/29
f 35/18/27 37/20/29 38/21/30
f 39/22/31 35/18/27 38/21/30
f 39/22/31 38/21/30 40/23/32
f 41/24/33 39/22/31 40/23/32
f 42/25/34 43/26/35 44/27/36
f 45/28/37 42/25/34 44/27/36
f 45/28/37 44/27/36 46/29/38
f 47/30/39 45/28/37 46/29/38
f 47/30/39 46/29/38 48/31/40
f 49/32/41 47/30/39 48/31/40
f 49/32/41 48/31/40 50/33/42
f 51/34/43 49/32/41 50/33/42
f 51/34/43 50/33/42 52/35/44
f 53/36/45 51/34/43 52/35/44
f 53/36/45 52/35/44 54/37/46
f 55/38/47 56/39/27 57/40/48
f 36/19/28 53/36/45 54/37/46
f 36/19/28 54/37/46 37/20/29
f 58/22/49 59/23/50 60/21/51
f 58/22/49 60/21/51 61/18/52
f 62/24/53 59/23/50 58/22/49
f 63/25/54 64/27/55 65/26/56
f 66/28/57 67/29/58 64/27/55
f 66/28/57 64/27/55 63/25/54
f 68/30/59 69/31/60 67/29/58
f 68/30/59 67/29/58 66/28/57
f 70/32/61 71/33/62 69/31/60
f 70/32/61 69/31/60 68/30/59
f 72/34/63 73/35/64 71/33/62
f 72/34/63 71/33/62 70/32/61
f 74/36/65 75/37/66 73/35/64
f 74/36/65 73/35/64 72/34/63
f 76/19/67 77/20/68 75/37/66
f 76/19/67 75/37/66 74/36/65
f 61/18/52 60/21/51 77/20/68
f 61/18/52 77/20/68 76/19/67
f 78/38/69 79/40/70 80/39/71
f 81/41/69 82/42/53 79/40/70
f 83/43/69 84/44/69 82/42/53
f 85/45/69 86/46/56 84/44/69
f 87/47/69 88/48/54 86/46/72
f 89/49/69 90/50/57 88/48/54
f 91/51/69 92/52/73 90/50/57
f 93/53/69 94/54/74 92/52/59
f 95/55/69 96/56/75 94/54/74
f 97/57/69 98/58/65 96/56/75
f 99/59/69 100/60/76 98/58/65
f 101/61/69 80/39/71 100/60/76
f 102/41/47 57/40/48 103/42/77
f 104/43/47 103/42/33 105/44/47
f 106/45/47 105/44/47 107/46/78
f 108/47/47 107/46/79 109/48/34
f 110/49/47 109/48/34 111/50/37
f 112/51/47 111/50/37 113/52/80
f 114/53/47 113/52/80 115/54/81
f 116/55/47 115/54/82 117/56/83
f 118/57/47 117/56/83 119/58/84
f 120/59/47 119/58/84 121/60/28
f 122/61/47 121/60/28 56/39/85
s 0
f 123/62/86 124/63/86 125/64/86
f 123/62/86 125/64/86 126/65/86
f 127/66/86 128/67/86 129/68/86
f 127/66/86 129/68/86 130/69/86
s 1
f 131/70/87 132/71/88 133/71/89
f 131/70/87 133/71/89 134/70/90
f 135/72/91 131/70/87 134/70/90
f 135/72/91 134/70/90 136/72/92
f 132/71/88 137/73/93 138/73/94
f 132/71/88 138/73/94 133/71/89
f 139/74/95 135/72/91 136/72/92
f 139/74/95 136/72/92 140/74/96
f 137/73/93 141/75/97 142/76/98
f 137/73/93 142/76/98 138/73/94
f 141/75/97 139/74/95 140/74/96
f 141/75/97 140/74/96 142/76/98
f 134/70/90 133/71/89 143/77/86
f 134/70/90 143/77/86 144/78/86
f 133/71/89 138/73/94 145/79/86
f 133/71/89 145/79/86 143/77/86
f 138/73/94 142/76/98 146/80/86
f 138/73/94 146/80/86 145/79/86
f 142/76/98 134/70/90 144/78/86
f 142/76/98 144/78/86 146/80/86
f 136/72/92 134/70/90 147/81/86
f 136/72/92 147/81/86 148/82/86
f 134/70/90 142/76/98 149/83/86
f 134/70/90 149/83/86 147/81/86
f 142/76/98 140/74/96 150/84/86
f 142/76/98 150/84/86 149/83/86
f 140/74/96 136/72/92 148/82/86
f 140/74/96 148/82/86 150/84/86
f 151/76/99 152/74/100 139/74/95
f 151/76/99 139/74/95 141/75/97
f 153/73/101 151/76/99 141/75/97
f 153/73/101 141/75/97 137/73/93
f 152/74/100 154/72/102 135/72/91
f 152/74/100 135/72/91 139/74/95
f 155/71/103 153/73/101 137/73/93
f 155/71/103 137/73/93 132/71/88
f 154/72/102 156/70/104 131/70/87
f 154/72/102 131/70/87 135/72/91
f 156/70/104 155/71/103 132/71/88
f 156/70/104 132/71/88 131/70/87
f 157/85/105 158/86/106 159/87/107
f 160/88/108 161/89/109 162/90/110
f 163/85/111 164/87/112 165/86/113
f 166/88/114 167/90/115 168/89/116
f 159/87/107 158/86/106 169/86/117
f 159/87/107 169/86/117 170/87/118
f 162/90/110 161/89/109 171/89/119
f 162/90/110 171/89/119 172/90/120
f 173/91/121 174/91/122 175/91/123
f 176/91/124 177/91/125 178/91/126
f 176/91/124 178/91/126 179/91/127
f 176/91/124 179/91/127 180/91/128
f 176/91/124 180/91/128 181/91/129
f 182/91/130 183/91/131 178/91/126
f 182/91/130 178/91/126 177/91/125
f 180/91/128 184/91/132 185/91/133
f 180/91/128 185/91/133 181/91/129
f 178/91/126 173/91/121 175/91/123
f 178/91/126 175/91/123 179/91/127
f 186/91/134 183/91/131 182/91/130
f 187/91/135 188/91/136 189/91/137
f 190/91/138 191/91/139 192/91/140
f 190/91/138 192/91/140 193/91/141
f 190/91/138 194/91/142 195/91/143
f 190/91/138 195/91/143 191/91/139
f 196/91/144 193/91/141 192/91/140
f 196/91/144 192/91/140 197/91/145
f 195/91/143 194/91/142 198/91/146
f 195/91/143 198/91/146 199/91/147
f 192/91/140 191/91/139 188/91/136
f 192/91/140 188/91/136 187/91/135
f 200/91/148 196/91/144 197/91/145
f 173/91/121 178/91/126 192/91/140
f 173/91/121 192/91/140 187/91/135
f 178/91/126 183/91/131 197/91/145
f 178/91/126 197/91/145 192/91/140
f 175/91/123 174/91/122 189/91/137
f 175/91/123 189/91/137 188/91/136
f 177/91/125 176/91/124 190/91/138
f 177/91/125 190/91/138 193/91/141
f 176/91/124 181/91/129 194/91/142
f 176/91/124 194/91/142 190/91/138
f 180/91/128 179/91/127 191/91/139
f 180/91/128 191/91/139 195/91/143
f 182/91/130 177/91/125 193/91/141
f 182/91/130 193/91/141 196/91/144
f 184/91/132 180/91/128 195/91/143
f 184/91/132 195/91/143 199/91/147
f 181/91/129 185/91/133 198/91/146
f 181/91/129 198/91/146 194/91/142
f 186/91/134 182/91/130 196/91/144
f 186/91/134 196/91/144 200/91/148
f 179/91/127 175/91/123 188/91/136
f 179/91/127 188/91/136 191/91/139
f 174/91/122 173/91/121 187/91/135
f 174/91/122 187/91/135 189/91/137
f 183/91/131 186/91/134 200/91/148
f 183/91/131 200/91/148 197/91/145
f 201/85/149 202/87/150 203/86/151
f 204/88/152 205/90/153 206/89/154
f 207/85/155 208/86/156 209/87/157
f 210/88/158 211/89/159 212/90/160
f 213/87/161 209/87/157 208/86/156
f 213/87/161 208/86/156 214/86/162
f 215/90/163 212/90/160 211/89/159
f 215/90/163 211/89/159 216/89/164
f 217/91/165 218/91/166 219/91/167
f 220/91/168 221/91/169 222/91/170
f 220/91/168 222/91/170 223/91/171
f 220/91/168 224/91/172 225/91/173
f 220/91/168 225/91/173 221/91/169
f 226/91/174 223/91/171 222/91/170
f 226/91/174 222/91/170 227/91/175
f 225/91/173 224/91/172 228/91/176
f 225/91/173 228/91/176 229/91/177
f 222/91/170 221/91/169 218/91/166
f 222/91/170 218/91/166 217/91/165
f 230/91/178 226/91/174 227/91/175
f 231/91/179 232/91/180 233/91/181
f 234/91/182 235/91/183 236/91/184
f 234/91/182 236/91/184 237/91/185
f 234/91/182 237/91/185 238/91/186
f 234/91/182 238/91/186 239/91/187
f 240/91/188 241/91/189 236/91/184
f 240/91/188 236/91/184 235/91/183
f 238/91/186 242/91/190 243/91/191
f 238/91/186 243/91/191 239/91/187
f 236/91/184 231/91/179 233/91/181
f 236/91/184 233/91/181 237/91/185
f 244/91/192 241/91/189 240/91/188
f 217/91/165 231/91/179 236/91/184
f 217/91/165 236/91/184 222/91/170
f 222/91/170 236/91/184 241/91/189
f 222/91/170 241/91/189 227/91/175
f 218/91/166 233/91/181 232/91/180
f 218/91/166 232/91/180 219/91/167
f 223/91/171 235/91/183 234/91/182
f 223/91/171 234/91/182 220/91/168
f 220/91/168 234/91/182 239/91/187
f 220/91/168 239/91/187 224/91/172
f 225/91/173 238/91/186 237/91/185
f 225/91/173 237/91/185 221/91/169
f 226/91/174 240/91/188 235/91/183
f 226/91/174 235/91/183 223/91/171
f 229/91/177 242/91/190 238/91/186
f 229/91/177 238/91/186 225/91/173
f 224/91/172 239/91/187 243/91/191
f 224/91/172 243/91/191 228/91/176
f 230/91/178 244/91/192 240/91/188
f 230/91/178 240/91/188 226/91/174
f 221/91/169 237/91/185 233/91/181
f 221/91/169 233/91/181 218/91/166
f 219/91/167 232/91/180 231/91/179
f 219/91/167 231/91/179 217/91/165
f 227/91/175 241/91/189 244/91/192
f 227/91/175 244/91/192 230/91/178
f 245/92/193 246/92/194 247/93/195
f 245/92/193 247/93/195 248/93/196
f 246/92/194 245/92/193 249/94/197
f 246/92/194 249/94/197 250/94/198
f 250/94/198 249/94/197 251/95/199
f 250/94/198 251/95/199 252/95/200
f 253/92/194 254/94/201 255/95/202
f 253/92/194 255/95/202 256/93/203
f 257/96/204 258/97/205 259/97/206
f 257/96/204 259/97/206 260/96/207
f 260/96/207 261/98/208 262/98/209
f 260/96/207 262/98/209 257/96/204
f 261/98/208 263/99/210 264/99/211
f 261/98/208 264/99/211 262/98/209
f 265/96/212 266/97/213 267/99/214
f 265/96/212 267/99/214 268/98/208
f 249/94/197 245/92/193 248/93/196
f 249/94/197 248/93/196 251/95/199
f 262/98/209 264/99/211 258/97/205
f 262/98/209 258/97/205 257/96/204
f 269/100/215 270/101/216 271/102/217
f 272/103/218 270/101/216 269/100/215
f 273/104/219 269/100/215 271/102/217
f 273/104/219 271/102/217 274/105/220
f 275/106/221 272/103/218 269/100/215
f 275/106/221 269/100/215 273/104/219
f 276/107/221 277/108/222 278/109/223
f 276/107/221 278/109/223 279/110/224
f 280/111/225 281/112/226 282/113/227
f 280/111/225 282/113/227 283/114/220
f 279/110/224 278/109/223 284/115/228
f 279/110/224 284/115/228 285/116/229
f 285/116/229 284/115/228 281/112/226
f 285/116/229 281/112/226 280/111/225
f 286/117/230 287/118/231 288/119/232
f 289/120/233 286/117/230 288/119/232
f 290/121/234 291/122/235 287/118/231
f 290/121/234 287/118/231 286/117/230
f 292/123/236 290/121/234 286/117/230
f 292/123/236 286/117/230 289/120/233
f 293/107/237 294/110/238 295/109/239
f 293/107/237 295/109/239 296/108/240
f 297/111/241 298/114/242 299/113/243
f 297/111/241 299/113/243 300/112/244
f 294/110/238 301/116/245 302/115/246
f 294/110/238 302/115/246 295/109/239
f 301/116/245 297/111/241 300/112/244
f 301/116/245 300/112/244 302/115/246
f 303/109/247 304/108/248 296/108/240
f 303/109/247 296/108/240 295/109/239
f 305/114/249 306/113/250 299/113/243
f 305/114/249 299/113/243 298/114/242
f 306/113/250 307/112/226 300/112/244
f 306/113/250 300/112/244 299/113/243
f 308/115/251 303/109/247 295/109/239
f 308/115/251 295/109/239 302/115/246
f 309/106/252 310/104/253 311/104/254
f 309/106/252 311/104/254 312/106/255
f 307/112/226 308/115/251 302/115/246
f 307/112/226 302/115/246 300/112/244
f 310/104/253 313/105/249 314/105/235
f 310/104/253 314/105/235 311/104/254
f 304/108/248 315/107/252 293/107/237
f 304/108/248 293/107/237 296/108/240
f 316/100/256 317/102/257 318/101/258
f 319/103/259 316/100/256 318/101/258
f 320/104/260 321/105/261 317/102/257
f 320/104/260 317/102/257 316/100/256
f 322/106/262 320/104/260 316/100/256
f 322/106/262 316/100/256 319/103/259
f 323/107/262 324/110/263 325/109/264
f 323/107/262 325/109/264 326/108/265
f 327/111/266 328/114/267 329/113/268
f 327/111/266 329/113/268 330/112/269
f 324/110/263 331/116/270 332/115/271
f 324/110/263 332/115/271 325/109/264
f 331/116/270 327/111/266 330/112/269
f 331/116/270 330/112/269 332/115/271
f 333/117/272 334/119/273 335/118/274
f 336/120/275 334/119/273 333/117/272
f 337/121/276 333/117/272 335/118/274
f 337/121/276 335/118/274 338/122/277
f 339/123/278 336/120/275 333/117/272
f 339/123/278 333/117/272 337/121/276
f 340/107/278 341/108/279 342/109/280
f 340/107/278 342/109/280 343/110/281
f 344/111/282 345/112/283 346/113/284
f 344/111/282 346/113/284 347/114/285
f 343/110/281 342/109/280 348/115/286
f 343/110/281 348/115/286 349/116/273
f 349/116/273 348/115/286 345/112/283
f 349/116/273 345/112/283 344/111/282
f 325/109/264 350/109/287 351/108/279
f 325/109/264 351/108/279 326/108/265
f 328/114/267 352/114/288 353/113/284
f 328/114/267 353/113/284 329/113/268
f 329/113/268 353/113/284 354/112/289
f 329/113/268 354/112/289 330/112/269
f 332/115/271 355/115/290 350/109/287
f 332/115/271 350/109/287 325/109/264
f 322/106/262 356/106/291 357/104/292
f 322/106/262 357/104/292 320/104/260
f 330/112/269 354/112/289 355/115/290
f 330/112/269 355/115/290 332/115/271
f 320/104/260 357/104/292 358/105/288
f 320/104/260 358/105/288 321/105/261
f 326/108/265 351/108/279 359/107/293
f 326/108/265 359/107/293 323/107/262
