# Blender 5.2.1 LTS
# www.blender.org
mtllib Moth.mtl
o Butterfly
v 0.127358 -0.513338 -2.308088
v -1.456089 -0.528905 -2.746582
v -0.236959 1.131445 0.026449
v -2.479776 0.791651 -1.289366
v -0.694303 -0.575076 -2.763989
v -1.346434 1.154105 -0.357005
v -0.185895 0.649581 -1.171239
v -2.264520 0.135590 -2.301668
v -1.073890 0.340038 -1.725709
v -0.239700 1.139009 0.023722
v -1.926037 0.549964 -2.143761
v -0.176458 1.366394 0.641543
v -4.935314 1.704226 -1.568885
v -0.801248 1.043577 -0.631285
v -2.650614 1.926997 0.161947
v -0.239187 1.240297 0.298928
v -3.631670 1.111519 -2.225015
v -1.594759 1.514646 -0.350047
v -0.100663 0.693167 0.018203
v -0.129985 0.758563 0.053785
v -0.166669 0.684699 0.042850
v -0.315503 0.774446 -0.295188
v -0.370681 0.825295 -0.287299
v -0.380206 0.747286 -0.286829
v -0.103423 0.635345 -0.747296
v -0.107788 0.566097 -0.708371
v -0.042825 0.593959 -0.716562
v -0.130590 0.648032 -0.919604
v -0.140277 0.597618 -0.858826
v -0.075314 0.625480 -0.867017
v -0.127106 0.783546 0.286373
v -0.118124 0.857979 0.312992
v -0.064967 0.798953 0.317438
v -0.333466 0.657237 0.735732
v -0.339191 0.658370 0.812502
v -0.274558 0.669196 0.765545
v -0.087905 0.500558 0.311262
v -0.027468 0.550507 0.280034
v -0.082358 0.535302 0.236540
v -0.074636 0.347211 0.357766
v -0.030469 0.410301 0.337805
v -0.086487 0.396235 0.296238
v -0.056375 0.772174 0.206668
v -0.106873 0.830468 0.220288
v -0.105145 0.760998 0.257260
v -0.368039 0.772528 -0.075114
v -0.440451 0.779378 -0.058043
v -0.391450 0.724576 -0.030250
v -0.084781 0.361385 -0.405323
v -0.032438 0.337793 -0.350249
v -0.010772 0.388695 -0.395005
v -0.129656 0.260938 -0.541285
v -0.092589 0.257233 -0.470988
v -0.070923 0.308134 -0.515744
v -0.063935 1.339043 0.950817
v -0.047078 1.370682 0.939172
v -1.362764 1.995564 2.060497
v -1.344933 2.045198 2.058704
v -0.080792 1.370682 0.939172
v -1.380594 2.034519 2.029686
v -0.330733 1.764872 1.191946
v -0.344114 1.733519 1.197130
v -0.357496 1.760752 1.180751
v -0.922252 2.083570 1.597979
v -0.938175 2.041776 1.601227
v -0.954097 2.075704 1.576606
v -0.259119 1.112020 0.680369
v -0.119687 0.828173 -1.713524
v -0.259104 1.368322 0.586050
v -0.119687 0.943213 -1.708405
v -0.253118 0.782388 0.180159
v -0.286013 0.763200 -0.481188
v -0.253118 1.093403 -0.151796
v -0.286013 0.884908 -0.838546
v -0.098724 1.310443 0.974766
v -0.098724 1.408096 0.938826
v -0.050340 -0.458108 -2.346745
v 1.534873 -0.472409 -2.786124
v 0.236959 1.131445 0.026449
v 2.558560 0.848148 -1.328908
v 0.773087 -0.518579 -2.803532
v 1.425217 1.210603 -0.396547
v 0.185895 0.649581 -1.171239
v 2.343304 0.192087 -2.341210
v 1.152673 0.396535 -1.765252
v 0.239700 1.139009 0.023722
v 1.844976 0.473979 -2.089210
v 0.176458 1.366394 0.641543
v 4.854252 1.628242 -1.514333
v 0.720219 0.967625 -0.576738
v 2.573205 1.854439 0.214039
v 0.239186 1.240297 0.298928
v 3.550608 1.035535 -2.170464
v 1.513697 1.438662 -0.295496
v 0.100489 0.693473 0.018723
v 0.130402 0.758748 0.054005
v 0.166640 0.684714 0.042847
v 0.313198 0.773558 -0.296429
v 0.368742 0.824032 -0.289028
v 0.377780 0.745964 -0.288607
v 0.096395 0.635837 -0.746716
v 0.100616 0.566567 -0.707815
v 0.035777 0.594868 -0.715467
v 0.122203 0.648314 -0.919249
v 0.132057 0.597845 -0.858544
v 0.067218 0.626146 -0.866196
v 0.127069 0.783545 0.286356
v 0.117866 0.857999 0.312839
v 0.064998 0.798744 0.317655
v 0.336064 0.659321 0.735170
v 0.341960 0.660578 0.811886
v 0.277121 0.670991 0.765141
v 0.095288 0.499470 0.310769
v 0.033090 0.549054 0.279559
v 0.088642 0.534161 0.236019
v 0.078953 0.347229 0.357769
v 0.034345 0.410003 0.337793
v 0.090414 0.396273 0.296183
v 0.059667 0.761078 0.198589
v 0.103593 0.823503 0.217135
v 0.105592 0.753195 0.252450
v 0.389580 0.794289 -0.058116
v 0.459583 0.811884 -0.036670
v 0.418200 0.749686 -0.012488
v 0.196779 0.348316 -0.407887
v 0.146270 0.315275 -0.356055
v 0.118816 0.362767 -0.401380
v 0.264866 0.259440 -0.542255
v 0.225281 0.248235 -0.474160
v 0.197827 0.295727 -0.519485
v 0.063935 1.339043 0.950817
v 0.047078 1.370682 0.939172
v 1.362763 1.995564 2.060498
v 1.344932 2.045198 2.058704
v 0.080792 1.370682 0.939172
v 1.380593 2.034519 2.029687
v 0.330732 1.764872 1.191946
v 0.344114 1.733519 1.197130
v 0.357495 1.760752 1.180751
v 0.922251 2.083570 1.597979
v 0.938174 2.041776 1.601227
v 0.954096 2.075704 1.576606
v 0.259118 1.112021 0.680371
v 0.119687 0.828173 -1.713524
v 0.259104 1.368322 0.586050
v 0.119687 0.943213 -1.708405
v 0.253118 0.782388 0.180159
v 0.286013 0.763200 -0.481187
v 0.253118 1.093403 -0.151796
v 0.286013 0.884908 -0.838546
v 0.098724 1.310443 0.974766
v 0.098724 1.408096 0.938826
v -0.000002 0.997005 0.722705
v 0.000000 0.779176 -1.774870
v -0.000000 1.483334 0.543721
v 0.000000 0.997465 -1.765155
v 0.000000 1.205758 -0.193147
v 0.000004 1.013496 -0.874716
v -0.000015 0.670779 0.222483
v 0.000000 0.634987 -0.447807
v -0.000000 1.266622 0.990894
v -0.000000 1.451918 0.922697
vn 0.2162 0.7394 -0.6376
vn 0.1327 0.7297 -0.6708
vn 0.0789 0.8938 -0.4414
vn 0.1184 0.8556 -0.5040
vn 0.1772 0.7356 -0.6538
vn 0.0940 0.8800 -0.4656
vn 0.1284 0.8474 -0.5152
vn 0.1260 0.7995 -0.5873
vn 0.1453 0.8053 -0.5748
vn 0.3441 0.8547 -0.3887
vn 0.2979 0.8167 -0.4942
vn 0.2781 0.9248 -0.2595
vn 0.1924 0.9017 -0.3871
vn 0.3243 0.8395 -0.4360
vn 0.2135 0.9093 -0.3572
vn 0.3036 0.9015 -0.3084
vn 0.2259 0.8782 -0.4217
vn 0.2771 0.8840 -0.3764
vn 0.7935 -0.1695 -0.5845
vn 0.0045 0.9807 0.1957
vn -0.6303 -0.7320 0.2586
vn 0.9993 -0.0328 -0.0178
vn -0.5216 0.8498 -0.0759
vn -0.7909 -0.6050 0.0919
vn -0.2850 0.9581 -0.0279
vn -0.3337 -0.9425 0.0170
vn 0.9722 -0.1885 0.1390
vn -0.2107 0.2106 -0.9546
vn -0.6940 -0.6801 -0.2365
vn 0.8993 0.0033 -0.4374
vn -0.6415 -0.6290 -0.4393
vn -0.3210 0.9300 0.1789
vn 0.8874 -0.2458 0.3901
vn -0.8991 -0.1302 -0.4179
vn -0.3688 -0.2189 0.9033
vn 0.8595 0.0858 0.5040
vn -0.6015 -0.4863 0.6338
vn 0.8637 0.4628 -0.1996
vn -0.2407 0.1812 -0.9536
vn -0.0200 -0.9416 0.3360
vn 0.9318 -0.1360 0.3366
vn -0.4282 -0.5243 -0.7360
vn 0.6486 -0.2693 -0.7119
vn -0.3173 0.9174 0.2401
vn -0.2530 -0.9047 0.3428
vn 0.5554 0.5820 -0.5940
vn -0.8212 0.5279 -0.2166
vn -0.3528 -0.6981 0.6231
vn -0.9396 0.2325 -0.2513
vn 0.4059 -0.6797 0.6109
vn 0.8526 0.4310 -0.2954
vn -0.3925 -0.5074 -0.7671
vn 0.0191 -0.9476 0.3189
vn 0.5504 0.3008 -0.7788
vn 0.1152 -0.4696 0.8753
vn 0.8411 0.3273 0.4307
vn -0.3141 -0.7358 0.6000
vn 0.1362 0.6126 0.7786
vn -0.6509 0.0157 -0.7590
vn -0.9490 0.2651 -0.1707
vn 0.7244 0.6810 0.1071
vn -0.1951 -0.7156 0.6707
vn -0.4561 0.2252 -0.8609
vn 0.5100 0.7995 0.3173
vn 0.0482 -0.9646 0.2591
vn -0.5725 0.3804 -0.7263
vn -0.8352 -0.3546 0.4205
vn -0.7156 -0.4964 -0.4914
vn -0.8273 0.5611 0.0256
vn -0.7758 0.4017 -0.4866
vn -0.8025 -0.5669 0.1863
vn -0.8517 -0.5240 -0.0068
vn -0.8385 0.5236 -0.1510
vn -0.9135 0.3693 -0.1706
vn -0.5252 -0.0548 0.8492
vn -0.5252 0.5923 0.6110
vn -0.2327 0.7493 -0.6200
vn -0.1327 0.7297 -0.6708
vn -0.1326 0.8914 -0.4334
vn -0.1184 0.8556 -0.5040
vn -0.1861 0.7413 -0.6448
vn -0.1273 0.8784 -0.4607
vn -0.1693 0.8474 -0.5033
vn -0.1260 0.7995 -0.5873
vn -0.1592 0.8085 -0.5665
vn -0.3078 0.8473 -0.4329
vn -0.2979 0.8167 -0.4942
vn -0.2534 0.9228 -0.2904
vn -0.1929 0.9010 -0.3885
vn -0.3035 0.8339 -0.4610
vn -0.2075 0.9073 -0.3657
vn -0.2743 0.8980 -0.3441
vn -0.2262 0.8776 -0.4226
vn -0.2632 0.8809 -0.3933
vn -0.7991 -0.1654 -0.5780
vn 0.0023 0.9807 0.1953
vn 0.6284 -0.7353 0.2538
vn -0.9996 -0.0266 -0.0095
vn 0.5261 0.8466 -0.0806
vn 0.7879 -0.6098 0.0856
vn 0.2912 0.9562 -0.0305
vn 0.3275 -0.9448 0.0144
vn -0.9722 -0.1820 0.1472
vn 0.2041 0.2090 -0.9564
vn 0.6873 -0.6848 -0.2422
vn -0.9029 0.0093 -0.4298
vn 0.6431 -0.6263 -0.4405
vn 0.3168 0.9321 0.1757
vn -0.8844 -0.2495 0.3944
vn 0.9004 -0.1148 -0.4196
vn 0.3735 -0.2168 0.9020
vn -0.8593 0.0759 0.5059
vn 0.6204 -0.4969 0.6067
vn -0.8651 0.4608 -0.1979
vn 0.2444 0.1825 -0.9524
vn 0.0140 -0.9381 0.3460
vn -0.9323 -0.1316 0.3370
vn 0.4100 -0.5338 -0.7396
vn -0.5630 -0.3286 -0.7584
vn 0.1951 0.9459 0.2591
vn 0.3183 -0.8766 0.3608
vn -0.6005 0.4902 -0.6318
vn 0.7608 0.6328 -0.1443
vn 0.4002 -0.6500 0.6460
vn 0.9007 0.3883 -0.1948
vn -0.3196 -0.7487 0.5807
vn -0.8952 0.2894 -0.3389
vn 0.5115 -0.4199 -0.7497
vn 0.1223 -0.9439 0.3069
vn -0.5510 0.2209 -0.8047
vn -0.1152 -0.4696 0.8753
vn -0.8411 0.3273 0.4307
vn 0.3141 -0.7358 0.6000
vn -0.1362 0.6126 0.7786
vn 0.6509 0.0157 -0.7590
vn 0.9490 0.2651 -0.1707
vn -0.7244 0.6810 0.1071
vn 0.1951 -0.7156 0.6707
vn 0.4561 0.2252 -0.8609
vn -0.5100 0.7995 0.3173
vn -0.0482 -0.9646 0.2591
vn 0.5725 0.3804 -0.7263
vn 0.8351 -0.3546 0.4205
vn 0.7156 -0.4964 -0.4914
vn 0.8273 0.5611 0.0256
vn 0.7758 0.4017 -0.4866
vn 0.8025 -0.5669 0.1864
vn 0.8517 -0.5241 -0.0068
vn 0.8385 0.5236 -0.1510
vn 0.9135 0.3693 -0.1706
vn 0.5252 -0.0549 0.8492
vn 0.5252 0.5923 0.6110
vn -0.0000 -0.7813 0.6242
vn -0.0000 -0.6484 -0.7613
vn -0.0000 0.9887 -0.1499
vn -0.0000 0.7125 -0.7017
vn -0.0000 0.9503 -0.3115
vn -0.0000 0.9899 -0.1415
vn -0.0000 -0.9498 0.3129
vn -0.0000 -0.9997 -0.0228
vn -0.0000 -0.3209 0.9471
vn -0.0000 0.8583 0.5131
vt 0.261821 0.238324
vt 0.196873 -0.003467
vt 0.426411 0.001902
vt 0.563891 0.249531
vt 0.335146 0.458123
vt 0.576129 0.480295
vt 0.039540 0.436382
vt -0.005390 0.264409
vt 0.026921 0.125042
vt 0.525459 0.660732
vt 0.953088 0.735496
vt 0.977341 0.979158
vt 0.556376 0.849713
vt 0.341051 0.532643
vt 0.303247 0.577028
vt 0.362048 0.492158
vt 0.499715 0.513432
vt 0.802144 0.499992
vt 0.787208 0.295633
vt 0.769181 0.296994
vt 0.769405 0.120978
vt 0.788903 0.115482
vt 0.753607 0.298863
vt 0.740875 0.389370
vt 0.722283 0.385537
vt 0.739179 0.293534
vt 0.782758 0.391657
vt 0.765927 0.387057
vt 0.759951 0.077458
vt 0.779625 0.073230
vt 0.722286 0.116167
vt 0.745586 0.112780
vt 0.749565 0.062665
vt 0.767631 0.063232
vt 0.736889 0.075950
vt 0.685613 0.281215
vt 0.666105 0.282588
vt 0.668369 0.099716
vt 0.685852 0.099938
vt 0.648467 0.284437
vt 0.653714 0.395902
vt 0.633725 0.393387
vt 0.630157 0.282890
vt 0.684918 0.392300
vt 0.670396 0.395902
vt 0.662492 0.060151
vt 0.682840 0.058154
vt 0.625669 0.100364
vt 0.648571 0.093143
vt 0.651218 0.044314
vt 0.670652 0.044797
vt 0.638408 0.058149
vt 0.848284 0.284044
vt 0.828474 0.283543
vt 0.835917 0.118738
vt 0.855729 0.117736
vt 0.813346 0.287528
vt 0.808165 0.385453
vt 0.789477 0.383763
vt 0.799120 0.282770
vt 0.841647 0.387752
vt 0.824622 0.385356
vt 0.828857 0.077434
vt 0.850305 0.074181
vt 0.789477 0.115152
vt 0.813668 0.113138
vt 0.819130 0.062665
vt 0.836782 0.063745
vt 0.806424 0.075142
vt 0.905595 0.076278
vt 0.907669 0.241001
vt 0.896415 0.241740
vt 0.891766 0.073063
vt 0.919489 0.077293
vt 0.917407 0.242957
vt 0.906153 0.580732
vt 0.911795 0.438016
vt 0.919040 0.440501
vt 0.914562 0.586212
vt 0.903876 0.442276
vt 0.927658 0.442395
vt 0.924382 0.588863
vt 0.929367 0.241217
vt 0.913558 0.062892
vt 0.198835 0.696888
vt 0.137906 0.648042
vt 0.168867 0.506759
vt 0.205597 0.507051
vt 0.053459 0.885154
vt 0.136088 0.874980
vt 0.150853 0.934601
vt 0.117140 0.941044
vt 0.207562 0.876647
vt 0.127859 0.761797
vt 0.247216 0.795190
vt 0.184408 0.934678
vt 0.288788 0.890191
vt 0.216636 0.942547
vt 0.175279 0.947049
vt 0.163489 0.964664
vt 0.296576 0.693238
vt 0.330053 0.797051
vt 0.043010 0.762227
vt 0.042124 0.642289
vt 0.199643 0.496996
vt 0.133253 0.492622
vt 0.191651 0.474096
vt 0.243029 0.495513
vt 0.932982 0.073010
vt 0.898704 0.587540
s 1
usemtl Butterfly
f 9/1/9 8/2/8 4/3/4 6/4/6
f 7/5/7 9/1/9 6/4/6 3/6/3
f 1/7/1 5/8/5 9/1/9 7/5/7
f 5/8/5 2/9/2 8/2/8 9/1/9
f 18/10/18 17/11/17 13/12/13 15/13/15
f 16/14/16 18/10/18 15/13/15 12/15/12
f 10/16/10 14/17/14 18/10/18 16/14/16
f 14/17/14 11/18/11 17/11/17 18/10/18
f 22/19/22 24/20/24 26/21/26 27/22/27
f 23/23/23 20/24/20 19/25/19 22/26/22
f 19/27/19 21/28/21 24/20/24 22/19/22
f 20/24/20 23/23/23 24/20/24 21/28/21
f 27/22/27 26/21/26 29/29/29 30/30/30
f 23/23/23 22/26/22 27/31/27 25/32/25
f 24/20/24 23/23/23 25/32/25 26/21/26
f 28/33/28 30/34/30 29/29/29
f 25/32/25 27/31/27 30/35/30 28/33/28
f 26/21/26 25/32/25 28/33/28 29/29/29
f 34/36/34 36/37/36 38/38/38 39/39/39
f 35/40/35 32/41/32 31/42/31 34/43/34
f 31/44/31 33/45/33 36/37/36 34/36/34
f 32/41/32 35/40/35 36/37/36 33/45/33
f 39/39/39 38/38/38 41/46/41 42/47/42
f 35/40/35 34/43/34 39/48/39 37/49/37
f 36/37/36 35/40/35 37/49/37 38/38/38
f 40/50/40 42/51/42 41/46/41
f 37/49/37 39/48/39 42/52/42 40/50/40
f 38/38/38 37/49/37 40/50/40 41/46/41
f 46/53/46 48/54/48 50/55/50 51/56/51
f 47/57/47 44/58/44 43/59/43 46/60/46
f 43/61/43 45/62/45 48/54/48 46/53/46
f 44/58/44 47/57/47 48/54/48 45/62/45
f 51/56/51 50/55/50 53/63/53 54/64/54
f 47/57/47 46/60/46 51/65/51 49/66/49
f 48/54/48 47/57/47 49/66/49 50/55/50
f 52/67/52 54/68/54 53/63/53
f 49/66/49 51/65/51 54/69/54 52/67/52
f 50/55/50 49/66/49 52/67/52 53/63/53
f 60/70/60 66/71/66 65/72/65 57/73/57
f 66/71/66 60/70/60 58/74/58 64/75/64
f 59/76/59 63/77/63 61/78/61 56/79/56
f 66/71/66 63/77/63 62/80/62 65/72/65
f 56/79/56 61/78/61 62/81/62 55/82/55
f 63/77/63 66/71/66 64/75/64 61/78/61
f 61/78/61 64/75/64 65/83/65 62/81/62
f 58/74/58 60/70/60 57/84/57
f 72/85/72 74/86/74 70/87/70 68/88/68
f 155/89/155 69/90/69 76/91/76 162/92/162
f 67/93/67 69/90/69 73/94/73 71/95/71
f 71/95/71 73/94/73 74/86/74 72/85/72
f 69/90/69 67/93/67 75/96/75 76/91/76
f 67/93/67 153/97/153 161/98/161 75/96/75
f 76/91/76 75/99/75 161/100/161 162/92/162
f 71/95/71 72/85/72 160/101/160 159/102/159
f 67/93/67 71/95/71 159/102/159 153/97/153
f 73/94/73 157/103/157 158/104/158 74/86/74
f 69/90/69 155/89/155 157/103/157 73/94/73
f 68/105/68 70/87/70 156/106/156 154/107/154
f 74/86/74 158/104/158 156/106/156 70/87/70
f 72/85/72 68/88/68 154/108/154 160/101/160
f 64/75/64 58/74/58 57/109/57 65/83/65
f 63/77/63 59/76/59 55/110/55 62/80/62
f 85/1/85 82/4/82 80/3/80 84/2/84
f 83/5/83 79/6/79 82/4/82 85/1/85
f 77/7/77 83/5/83 85/1/85 81/8/81
f 81/8/81 85/1/85 84/2/84 78/9/78
f 94/10/94 91/13/91 89/12/89 93/11/93
f 92/14/92 88/15/88 91/13/91 94/10/94
f 86/16/86 92/14/92 94/10/94 90/17/90
f 90/17/90 94/10/94 93/11/93 87/18/87
f 98/19/98 103/22/103 102/21/102 100/20/100
f 99/23/99 98/26/98 95/25/95 96/24/96
f 95/27/95 98/19/98 100/20/100 97/28/97
f 96/24/96 97/28/97 100/20/100 99/23/99
f 103/22/103 106/30/106 105/29/105 102/21/102
f 99/23/99 101/32/101 103/31/103 98/26/98
f 100/20/100 102/21/102 101/32/101 99/23/99
f 104/33/104 105/29/105 106/34/106
f 101/32/101 104/33/104 106/35/106 103/31/103
f 102/21/102 105/29/105 104/33/104 101/32/101
f 110/36/110 115/39/115 114/38/114 112/37/112
f 111/40/111 110/43/110 107/42/107 108/41/108
f 107/44/107 110/36/110 112/37/112 109/45/109
f 108/41/108 109/45/109 112/37/112 111/40/111
f 115/39/115 118/47/118 117/46/117 114/38/114
f 111/40/111 113/49/113 115/48/115 110/43/110
f 112/37/112 114/38/114 113/49/113 111/40/111
f 116/50/116 117/46/117 118/51/118
f 113/49/113 116/50/116 118/52/118 115/48/115
f 114/38/114 117/46/117 116/50/116 113/49/113
f 122/53/122 127/56/127 126/55/126 124/54/124
f 123/57/123 122/60/122 119/59/119 120/58/120
f 119/61/119 122/53/122 124/54/124 121/62/121
f 120/58/120 121/62/121 124/54/124 123/57/123
f 127/56/127 130/64/130 129/63/129 126/55/126
f 123/57/123 125/66/125 127/65/127 122/60/122
f 124/54/124 126/55/126 125/66/125 123/57/123
f 128/67/128 129/63/129 130/68/130
f 125/66/125 128/67/128 130/69/130 127/65/127
f 126/55/126 129/63/129 128/67/128 125/66/125
f 136/70/136 133/73/133 141/72/141 142/71/142
f 142/71/142 140/75/140 134/74/134 136/70/136
f 135/76/135 132/79/132 137/78/137 139/77/139
f 142/71/142 141/72/141 138/80/138 139/77/139
f 132/79/132 131/82/131 138/81/138 137/78/137
f 139/77/139 137/78/137 140/75/140 142/71/142
f 137/78/137 138/81/138 141/83/141 140/75/140
f 134/74/134 133/84/133 136/70/136
f 148/85/148 144/88/144 146/87/146 150/86/150
f 155/89/155 162/92/162 152/91/152 145/90/145
f 143/93/143 147/95/147 149/94/149 145/90/145
f 147/95/147 148/85/148 150/86/150 149/94/149
f 145/90/145 152/91/152 151/96/151 143/93/143
f 143/93/143 151/96/151 161/98/161 153/97/153
f 152/91/152 162/92/162 161/100/161 151/99/151
f 147/95/147 159/102/159 160/101/160 148/85/148
f 143/93/143 153/97/153 159/102/159 147/95/147
f 149/94/149 150/86/150 158/104/158 157/103/157
f 145/90/145 149/94/149 157/103/157 155/89/155
f 144/105/144 154/107/154 156/106/156 146/87/146
f 150/86/150 146/87/146 156/106/156 158/104/158
f 148/85/148 160/101/160 154/108/154 144/88/144
f 140/75/140 141/83/141 133/109/133 134/74/134
f 139/77/139 138/80/138 131/110/131 135/76/135
